<mxfile host="Electron" agent="Mozilla/5.0 (Windows NT 10.0; Win64; x64) AppleWebKit/537.36 (KHTML, like Gecko) draw.io/26.0.9 Chrome/128.0.6613.186 Electron/32.2.5 Safari/537.36" version="26.0.9">
  <diagram name="Página-1" id="hvq55EinE-sMcURFZaXU">
    <mxGraphModel dx="880" dy="532" grid="1" gridSize="10" guides="1" tooltips="1" connect="1" arrows="1" fold="1" page="1" pageScale="1" pageWidth="1169" pageHeight="1654" math="0" shadow="0">
      <root>
        <mxCell id="0" />
        <mxCell id="1" parent="0" />
        <mxCell id="znEgfY-EUkiGfDPgwD8e-17" style="edgeStyle=orthogonalEdgeStyle;rounded=0;orthogonalLoop=1;jettySize=auto;html=1;exitX=0;exitY=0.5;exitDx=0;exitDy=0;entryX=1;entryY=0.5;entryDx=0;entryDy=0;" edge="1" parent="1" source="znEgfY-EUkiGfDPgwD8e-1" target="znEgfY-EUkiGfDPgwD8e-2">
          <mxGeometry relative="1" as="geometry" />
        </mxCell>
        <mxCell id="znEgfY-EUkiGfDPgwD8e-18" style="edgeStyle=orthogonalEdgeStyle;rounded=0;orthogonalLoop=1;jettySize=auto;html=1;exitX=1;exitY=0.5;exitDx=0;exitDy=0;entryX=0;entryY=0.5;entryDx=0;entryDy=0;" edge="1" parent="1" source="znEgfY-EUkiGfDPgwD8e-1" target="znEgfY-EUkiGfDPgwD8e-4">
          <mxGeometry relative="1" as="geometry" />
        </mxCell>
        <mxCell id="znEgfY-EUkiGfDPgwD8e-1" value="inicio" style="rounded=1;whiteSpace=wrap;html=1;" vertex="1" parent="1">
          <mxGeometry x="390" y="20" width="110" height="40" as="geometry" />
        </mxCell>
        <mxCell id="znEgfY-EUkiGfDPgwD8e-22" style="edgeStyle=orthogonalEdgeStyle;rounded=0;orthogonalLoop=1;jettySize=auto;html=1;exitX=0.5;exitY=1;exitDx=0;exitDy=0;entryX=0;entryY=0.5;entryDx=0;entryDy=0;" edge="1" parent="1" source="znEgfY-EUkiGfDPgwD8e-2" target="znEgfY-EUkiGfDPgwD8e-11">
          <mxGeometry relative="1" as="geometry" />
        </mxCell>
        <mxCell id="znEgfY-EUkiGfDPgwD8e-2" value="numeroA" style="shape=parallelogram;perimeter=parallelogramPerimeter;whiteSpace=wrap;html=1;fixedSize=1;" vertex="1" parent="1">
          <mxGeometry x="230" y="15" width="110" height="50" as="geometry" />
        </mxCell>
        <mxCell id="znEgfY-EUkiGfDPgwD8e-21" style="edgeStyle=orthogonalEdgeStyle;rounded=0;orthogonalLoop=1;jettySize=auto;html=1;exitX=0.5;exitY=1;exitDx=0;exitDy=0;entryX=1;entryY=0.5;entryDx=0;entryDy=0;" edge="1" parent="1" source="znEgfY-EUkiGfDPgwD8e-4" target="znEgfY-EUkiGfDPgwD8e-11">
          <mxGeometry relative="1" as="geometry" />
        </mxCell>
        <mxCell id="znEgfY-EUkiGfDPgwD8e-4" value="numeroB" style="shape=parallelogram;perimeter=parallelogramPerimeter;whiteSpace=wrap;html=1;fixedSize=1;" vertex="1" parent="1">
          <mxGeometry x="550" y="15" width="110" height="50" as="geometry" />
        </mxCell>
        <mxCell id="znEgfY-EUkiGfDPgwD8e-25" style="edgeStyle=orthogonalEdgeStyle;rounded=0;orthogonalLoop=1;jettySize=auto;html=1;exitX=0.5;exitY=1;exitDx=0;exitDy=0;entryX=0.5;entryY=0;entryDx=0;entryDy=0;" edge="1" parent="1" source="znEgfY-EUkiGfDPgwD8e-10" target="znEgfY-EUkiGfDPgwD8e-16">
          <mxGeometry relative="1" as="geometry" />
        </mxCell>
        <mxCell id="znEgfY-EUkiGfDPgwD8e-27" style="edgeStyle=orthogonalEdgeStyle;rounded=0;orthogonalLoop=1;jettySize=auto;html=1;exitX=1;exitY=0.5;exitDx=0;exitDy=0;entryX=0;entryY=0.5;entryDx=0;entryDy=0;" edge="1" parent="1" source="znEgfY-EUkiGfDPgwD8e-10" target="znEgfY-EUkiGfDPgwD8e-26">
          <mxGeometry relative="1" as="geometry" />
        </mxCell>
        <mxCell id="znEgfY-EUkiGfDPgwD8e-28" value="não" style="edgeLabel;html=1;align=center;verticalAlign=middle;resizable=0;points=[];" vertex="1" connectable="0" parent="znEgfY-EUkiGfDPgwD8e-27">
          <mxGeometry x="-0.0286" y="2" relative="1" as="geometry">
            <mxPoint as="offset" />
          </mxGeometry>
        </mxCell>
        <mxCell id="znEgfY-EUkiGfDPgwD8e-10" value="resto = 1" style="rhombus;whiteSpace=wrap;html=1;" vertex="1" parent="1">
          <mxGeometry x="390" y="240" width="110" height="90" as="geometry" />
        </mxCell>
        <mxCell id="znEgfY-EUkiGfDPgwD8e-32" style="edgeStyle=orthogonalEdgeStyle;rounded=0;orthogonalLoop=1;jettySize=auto;html=1;exitX=0.5;exitY=1;exitDx=0;exitDy=0;entryX=0.5;entryY=0;entryDx=0;entryDy=0;" edge="1" parent="1" source="znEgfY-EUkiGfDPgwD8e-11" target="znEgfY-EUkiGfDPgwD8e-31">
          <mxGeometry relative="1" as="geometry" />
        </mxCell>
        <mxCell id="znEgfY-EUkiGfDPgwD8e-11" value="soma = 0" style="rounded=0;whiteSpace=wrap;html=1;" vertex="1" parent="1">
          <mxGeometry x="380" y="100" width="130" height="40" as="geometry" />
        </mxCell>
        <mxCell id="znEgfY-EUkiGfDPgwD8e-34" style="edgeStyle=orthogonalEdgeStyle;rounded=0;orthogonalLoop=1;jettySize=auto;html=1;exitX=1;exitY=0.5;exitDx=0;exitDy=0;entryX=0.5;entryY=1;entryDx=0;entryDy=0;" edge="1" parent="1" source="znEgfY-EUkiGfDPgwD8e-16" target="znEgfY-EUkiGfDPgwD8e-26">
          <mxGeometry relative="1" as="geometry" />
        </mxCell>
        <mxCell id="znEgfY-EUkiGfDPgwD8e-16" value="soma = soma + numeroA" style="rounded=0;whiteSpace=wrap;html=1;" vertex="1" parent="1">
          <mxGeometry x="365" y="380" width="160" height="45" as="geometry" />
        </mxCell>
        <mxCell id="znEgfY-EUkiGfDPgwD8e-30" style="edgeStyle=orthogonalEdgeStyle;rounded=0;orthogonalLoop=1;jettySize=auto;html=1;exitX=1;exitY=0.5;exitDx=0;exitDy=0;entryX=0;entryY=0.5;entryDx=0;entryDy=0;" edge="1" parent="1" source="znEgfY-EUkiGfDPgwD8e-26" target="znEgfY-EUkiGfDPgwD8e-29">
          <mxGeometry relative="1" as="geometry" />
        </mxCell>
        <mxCell id="znEgfY-EUkiGfDPgwD8e-26" value="numeroA = numeroA + 1" style="rounded=0;whiteSpace=wrap;html=1;" vertex="1" parent="1">
          <mxGeometry x="580" y="252.5" width="140" height="65" as="geometry" />
        </mxCell>
        <mxCell id="znEgfY-EUkiGfDPgwD8e-39" style="edgeStyle=orthogonalEdgeStyle;rounded=0;orthogonalLoop=1;jettySize=auto;html=1;exitX=0.5;exitY=1;exitDx=0;exitDy=0;entryX=0.5;entryY=0;entryDx=0;entryDy=0;" edge="1" parent="1" source="znEgfY-EUkiGfDPgwD8e-29" target="znEgfY-EUkiGfDPgwD8e-38">
          <mxGeometry relative="1" as="geometry" />
        </mxCell>
        <mxCell id="znEgfY-EUkiGfDPgwD8e-29" value="numeroA &amp;lt;= numeroB" style="rhombus;whiteSpace=wrap;html=1;" vertex="1" parent="1">
          <mxGeometry x="800" y="220" width="130" height="130" as="geometry" />
        </mxCell>
        <mxCell id="znEgfY-EUkiGfDPgwD8e-33" style="edgeStyle=orthogonalEdgeStyle;rounded=0;orthogonalLoop=1;jettySize=auto;html=1;exitX=0.5;exitY=1;exitDx=0;exitDy=0;entryX=0.5;entryY=0;entryDx=0;entryDy=0;" edge="1" parent="1" source="znEgfY-EUkiGfDPgwD8e-31" target="znEgfY-EUkiGfDPgwD8e-10">
          <mxGeometry relative="1" as="geometry" />
        </mxCell>
        <mxCell id="znEgfY-EUkiGfDPgwD8e-31" value="resto = numeroA % 2" style="rounded=0;whiteSpace=wrap;html=1;" vertex="1" parent="1">
          <mxGeometry x="380" y="160" width="120" height="60" as="geometry" />
        </mxCell>
        <mxCell id="znEgfY-EUkiGfDPgwD8e-35" style="edgeStyle=orthogonalEdgeStyle;rounded=0;orthogonalLoop=1;jettySize=auto;html=1;exitX=0.5;exitY=0;exitDx=0;exitDy=0;entryX=1;entryY=0.4;entryDx=0;entryDy=0;entryPerimeter=0;" edge="1" parent="1" source="znEgfY-EUkiGfDPgwD8e-29" target="znEgfY-EUkiGfDPgwD8e-31">
          <mxGeometry relative="1" as="geometry" />
        </mxCell>
        <mxCell id="znEgfY-EUkiGfDPgwD8e-36" value="sim" style="edgeLabel;html=1;align=center;verticalAlign=middle;resizable=0;points=[];" vertex="1" connectable="0" parent="znEgfY-EUkiGfDPgwD8e-35">
          <mxGeometry x="-0.601" y="-1" relative="1" as="geometry">
            <mxPoint as="offset" />
          </mxGeometry>
        </mxCell>
        <mxCell id="znEgfY-EUkiGfDPgwD8e-38" value="soma" style="shape=document;whiteSpace=wrap;html=1;boundedLbl=1;" vertex="1" parent="1">
          <mxGeometry x="820" y="372.5" width="90" height="60" as="geometry" />
        </mxCell>
        <mxCell id="znEgfY-EUkiGfDPgwD8e-40" value="fim" style="rounded=1;whiteSpace=wrap;html=1;" vertex="1" parent="1">
          <mxGeometry x="820" y="470" width="90" height="30" as="geometry" />
        </mxCell>
        <mxCell id="znEgfY-EUkiGfDPgwD8e-41" value="" style="endArrow=classic;html=1;rounded=0;exitX=0.544;exitY=0.875;exitDx=0;exitDy=0;exitPerimeter=0;entryX=0.5;entryY=0;entryDx=0;entryDy=0;" edge="1" parent="1" source="znEgfY-EUkiGfDPgwD8e-38" target="znEgfY-EUkiGfDPgwD8e-40">
          <mxGeometry width="50" height="50" relative="1" as="geometry">
            <mxPoint x="620" y="420" as="sourcePoint" />
            <mxPoint x="670" y="370" as="targetPoint" />
          </mxGeometry>
        </mxCell>
      </root>
    </mxGraphModel>
  </diagram>
</mxfile>
